<svg width="22" height="22" viewBox="0 0 22 22" fill="none" xmlns="http://www.w3.org/2000/svg">
<path fill-rule="evenodd" clip-rule="evenodd" d="M10.8001 21.07C16.7649 21.07 21.6002 16.3533 21.6002 10.535C21.6002 4.71668 16.7649 0 10.8001 0C4.83538 0 0 4.71668 0 10.535C0 16.3533 4.83538 21.07 10.8001 21.07ZM10.4458 5.22827C10.5189 5.15549 10.6185 5.11362 10.723 5.11167C10.776 5.11075 10.8292 5.12014 10.8784 5.13929C10.9277 5.15844 10.9725 5.18697 11.0103 5.2232C11.0481 5.25944 11.0781 5.30266 11.0986 5.35034C11.1191 5.39802 11.1297 5.4492 11.1297 5.50091V12.8995C11.1297 13.0027 11.0876 13.1018 11.0128 13.1747C10.9379 13.2477 10.8365 13.2887 10.7306 13.2887C10.6248 13.2887 10.5233 13.2477 10.4485 13.1747C10.3736 13.1018 10.3316 13.0027 10.3316 12.8995V5.50091C10.3316 5.39895 10.3726 5.30106 10.4458 5.22827ZM16.6098 7.36146C16.6574 7.34081 16.7087 7.32943 16.7607 7.32796C16.8397 7.32581 16.9176 7.34653 16.9845 7.38751C17.0515 7.42848 17.1045 7.48788 17.1369 7.5582C17.1796 7.65245 17.1824 7.75935 17.1445 7.85557C17.1067 7.95181 17.0315 8.02955 16.9352 8.07186L14.3263 9.20819L16.9352 10.3488C17.0184 10.3851 17.0864 10.4483 17.1277 10.5276C17.1691 10.6069 17.1813 10.6977 17.1623 10.7847C17.1434 10.8718 17.0945 10.9499 17.0236 11.006C16.9529 11.0621 16.8645 11.0929 16.7733 11.0932C16.7169 11.093 16.6612 11.0812 16.6098 11.0586L13.1853 9.56285C13.1152 9.53198 13.0558 9.48205 13.0141 9.41904C12.9724 9.35604 12.9502 9.28264 12.9502 9.20765C12.9502 9.13266 12.9724 9.05926 13.0141 8.99626C13.0558 8.93325 13.1152 8.88332 13.1853 8.85245L16.6098 7.36146ZM4.31752 10.0411C4.37312 10.0154 4.43405 10.0026 4.49555 10.0037C4.58249 10.0053 4.66649 10.0352 4.73478 10.0877C4.80307 10.1402 4.85191 10.213 4.87386 10.2951C5.29151 11.8556 6.22806 13.237 7.53679 14.2227C8.84553 15.2084 10.4525 15.7428 12.106 15.7422C12.2118 15.7422 12.3133 15.7831 12.3881 15.8562C12.4629 15.9292 12.505 16.0282 12.505 16.1314C12.505 16.2346 12.4629 16.3336 12.3881 16.4067C12.3133 16.4797 12.2118 16.5207 12.106 16.5207C8.34028 16.5207 5.0483 14.0406 4.10198 10.4902C4.08659 10.4321 4.08518 10.3713 4.09786 10.3126C4.11053 10.2539 4.13696 10.1988 4.17506 10.1517C4.21317 10.1046 4.26193 10.0667 4.31752 10.0411Z" fill="#324152" fill-opacity="0.5"/>
</svg>
