<svg width="16" height="15" viewBox="0 0 16 15" fill="none" xmlns="http://www.w3.org/2000/svg">
<path d="M7.88871 0.554884C7.76446 0.557261 7.6461 0.608295 7.55908 0.697014C7.47206 0.785733 7.42332 0.905055 7.42334 1.02933V10.0477C7.42334 10.1735 7.47333 10.2942 7.5623 10.3831C7.65128 10.4721 7.77195 10.5221 7.89778 10.5221C8.02362 10.5221 8.14429 10.4721 8.23327 10.3831C8.32224 10.2942 8.37223 10.1735 8.37223 10.0477V1.02933C8.37224 0.966309 8.35969 0.903918 8.33533 0.845799C8.31096 0.787681 8.27525 0.735 8.2303 0.690832C8.18535 0.646663 8.13205 0.611893 8.07351 0.588552C8.01497 0.565211 7.95172 0.553765 7.88871 0.554884ZM15.0676 3.25637C15.0057 3.25816 14.9447 3.27203 14.8881 3.2972L10.8164 5.11461C10.7331 5.15224 10.6624 5.2131 10.6128 5.2899C10.5633 5.36669 10.5369 5.45616 10.5369 5.54757C10.5369 5.63898 10.5633 5.72844 10.6128 5.80524C10.6624 5.88204 10.7331 5.9429 10.8164 5.98053L14.8881 7.80377C14.9492 7.83129 15.0155 7.84564 15.0825 7.8459C15.191 7.84556 15.2961 7.80805 15.3802 7.73964C15.4644 7.67123 15.5226 7.57603 15.5451 7.46992C15.5676 7.36381 15.5531 7.25319 15.5039 7.15649C15.4548 7.05979 15.374 6.98285 15.275 6.9385L12.173 5.54822L15.275 4.16313C15.3895 4.11156 15.479 4.01679 15.5239 3.89949C15.5689 3.7822 15.5656 3.6519 15.5148 3.53701C15.4763 3.4513 15.4133 3.3789 15.3337 3.32896C15.2541 3.27901 15.1615 3.25375 15.0676 3.25637ZM0.484269 6.51785C0.411139 6.51652 0.338693 6.53212 0.27259 6.56343C0.206487 6.59473 0.148517 6.6409 0.103209 6.69832C0.0579012 6.75574 0.0264825 6.82286 0.0114074 6.89443C-0.00366777 6.966 -0.00199107 7.04009 0.0163064 7.1109C1.14149 11.4386 5.05566 14.4616 9.53306 14.4616C9.65889 14.4616 9.77957 14.4116 9.86854 14.3226C9.95752 14.2336 10.0075 14.1129 10.0075 13.9871C10.0075 13.8613 9.95752 13.7406 9.86854 13.6516C9.77957 13.5626 9.65889 13.5127 9.53306 13.5127C7.56709 13.5134 5.6564 12.862 4.10031 11.6605C2.54423 10.459 1.43067 8.77525 0.934084 6.87303C0.907975 6.773 0.849905 6.68423 0.768709 6.62023C0.687513 6.55624 0.587635 6.51986 0.484269 6.51785Z" fill="white"/>
</svg>
