<svg width="19" height="22" viewBox="0 0 19 22" fill="none" xmlns="http://www.w3.org/2000/svg">
<path d="M12.5174 1.18964C10.627 0.750363 8.66104 0.750363 6.77061 1.18964C5.67878 0.519998 4.84521 0.212243 4.23898 0.082336C3.98024 0.0239403 3.71548 -0.00357335 3.45026 0.000371076C3.32958 0.00364181 3.20946 0.0181384 3.09147 0.0436733L3.076 0.0467663L3.06982 0.0498593H3.06518L3.27705 0.79373L3.06518 0.0514058C2.95653 0.0821093 2.85592 0.136233 2.77043 0.209973C2.68493 0.283713 2.61662 0.37528 2.5703 0.478242C2.11404 1.50003 2.02711 2.64864 2.3244 3.72746C1.55445 4.66055 1.13486 5.83342 1.13823 7.04317C1.13823 9.4449 1.84653 11.0595 3.05435 12.0972C3.90029 12.824 4.92717 13.2106 5.95715 13.4318C5.79506 13.9078 5.73397 14.4124 5.77775 14.9134V15.8382C5.14833 15.9696 4.71221 15.9279 4.40136 15.8258C4.01319 15.6974 3.71471 15.4392 3.42861 15.068C3.27905 14.8679 3.13968 14.6604 3.01105 14.4463L2.9229 14.3025C2.81159 14.1174 2.69609 13.9349 2.57648 13.755C2.28265 13.3204 1.84653 12.7761 1.14132 12.5905L0.392813 12.3941L0 13.8911L0.74851 14.0875C0.87223 14.1184 1.03307 14.2344 1.29752 14.6226C1.39931 14.7758 1.49728 14.9316 1.59136 15.0897L1.69652 15.2598C1.84189 15.4948 2.00891 15.7547 2.20223 16.0083C2.59349 16.5186 3.12704 17.0336 3.91885 17.295C4.46013 17.4744 5.07564 17.5177 5.77775 17.4094V20.2967C5.77775 20.5018 5.85922 20.6985 6.00424 20.8435C6.14925 20.9885 6.34593 21.07 6.55101 21.07H12.737C12.9421 21.07 13.1388 20.9885 13.2838 20.8435C13.4288 20.6985 13.5103 20.5018 13.5103 20.2967V14.7865C13.5103 14.2994 13.4886 13.8524 13.351 13.4364C14.3763 13.2199 15.3955 12.8333 16.2368 12.1064C17.4431 11.061 18.1498 9.43098 18.1498 7.01533V7.01379C18.1459 5.81394 17.7262 4.65256 16.9621 3.72746C17.259 2.64912 17.1721 1.50113 16.7162 0.479789C16.6702 0.376705 16.6022 0.284938 16.517 0.210932C16.4318 0.136926 16.3314 0.0824759 16.2229 0.0514058L16.011 0.79373C16.2229 0.0514059 16.2213 0.0514058 16.2198 0.0514058L16.2167 0.0498593L16.2105 0.0467663L16.1966 0.0436733C16.1584 0.0337417 16.1197 0.0259966 16.0806 0.0204757C15.9996 0.00865579 15.918 0.00194097 15.8362 0.000371076C15.571 -0.00354427 15.3063 0.023969 15.0475 0.082336C14.4428 0.212243 13.6093 0.519998 12.5174 1.18964Z" fill="#324152" fill-opacity="0.5"/>
</svg>
