<svg width="16" height="15" viewBox="0 0 16 15" fill="none" xmlns="http://www.w3.org/2000/svg">
<path d="M14.4672 3.58817C14.637 3.04038 14.6915 2.46336 14.6272 1.89348C14.5629 1.3236 14.3812 0.773222 14.0936 0.277054C14.0448 0.192581 13.9747 0.122437 13.8902 0.0736759C13.8057 0.0249146 13.7099 -0.000745237 13.6123 -0.000723331C12.9652 -0.00207779 12.3268 0.147932 11.748 0.437321C11.1692 0.726711 10.6662 1.14746 10.279 1.66594H8.61233C8.22516 1.14746 7.72208 0.726711 7.14331 0.437321C6.56453 0.147932 5.92609 -0.00207779 5.279 -0.000723331C5.18145 -0.000745237 5.08563 0.0249146 5.00115 0.0736759C4.91667 0.122437 4.84652 0.192581 4.79775 0.277054C4.51014 0.773222 4.32846 1.3236 4.26416 1.89348C4.19985 2.46336 4.25432 3.04038 4.42414 3.58817C4.08089 4.18727 3.89702 4.8644 3.89011 5.55483V6.11039C3.89128 7.05039 4.23252 7.95823 4.85082 8.66626C5.46912 9.37429 6.32272 9.8347 7.254 9.96247C6.87386 10.4489 6.66753 11.0486 6.66788 11.6659V12.2215H5.00122C4.55919 12.2215 4.13527 12.0459 3.82271 11.7333C3.51015 11.4208 3.33455 10.9969 3.33455 10.5548C3.33455 10.1901 3.2627 9.82884 3.12311 9.49182C2.98351 9.15481 2.7789 8.84859 2.52096 8.59065C2.26302 8.33271 1.9568 8.1281 1.61978 7.9885C1.28277 7.8489 0.921559 7.77705 0.556776 7.77705C0.409434 7.77705 0.268126 7.83559 0.163939 7.93977C0.0597523 8.04396 0.0012207 8.18527 0.0012207 8.33261C0.0012207 8.47995 0.0597523 8.62126 0.163939 8.72545C0.268126 8.82963 0.409434 8.88817 0.556776 8.88817C0.998803 8.88817 1.42273 9.06376 1.73529 9.37632C2.04785 9.68888 2.22344 10.1128 2.22344 10.5548C2.22344 11.2915 2.5161 11.9981 3.03703 12.519C3.55797 13.04 4.26451 13.3326 5.00122 13.3326H6.66788V14.4437C6.66788 14.5911 6.72642 14.7324 6.8306 14.8366C6.93479 14.9407 7.0761 14.9993 7.22344 14.9993C7.37078 14.9993 7.51209 14.9407 7.61628 14.8366C7.72046 14.7324 7.77899 14.5911 7.77899 14.4437V11.6659C7.77899 11.2239 7.95459 10.8 8.26715 10.4874C8.57971 10.1749 9.00363 9.99928 9.44566 9.99928C9.88769 9.99928 10.3116 10.1749 10.6242 10.4874C10.9367 10.8 11.1123 11.2239 11.1123 11.6659V14.4437C11.1123 14.5911 11.1709 14.7324 11.275 14.8366C11.3792 14.9407 11.5205 14.9993 11.6679 14.9993C11.8152 14.9993 11.9565 14.9407 12.0607 14.8366C12.1649 14.7324 12.2234 14.5911 12.2234 14.4437V11.6659C12.2238 11.0486 12.0175 10.4489 11.6373 9.96247C12.5686 9.8347 13.4222 9.37429 14.0405 8.66626C14.6588 7.95823 15 7.05039 15.0012 6.11039V5.55483C14.9943 4.8644 14.8104 4.18727 14.4672 3.58817ZM13.8901 6.11039C13.8901 6.8471 13.5974 7.55364 13.0765 8.07457C12.5556 8.59551 11.849 8.88817 11.1123 8.88817H7.77899C7.04228 8.88817 6.33574 8.59551 5.81481 8.07457C5.29388 7.55364 5.00122 6.8471 5.00122 6.11039V5.55483C5.00803 4.99929 5.17435 4.45742 5.48038 3.99372C5.53743 3.91853 5.57438 3.83004 5.58775 3.7366C5.60111 3.64317 5.59045 3.54787 5.55677 3.45969C5.41207 3.0865 5.34243 2.68841 5.35184 2.28825C5.36125 1.8881 5.44954 1.49373 5.61163 1.12775C6.0663 1.17666 6.50412 1.32727 6.89266 1.56842C7.28119 1.80957 7.61047 2.13508 7.85608 2.5208C7.90613 2.59907 7.97501 2.66354 8.05641 2.7083C8.13782 2.75307 8.22915 2.77671 8.32205 2.77705H10.5686C10.6618 2.77706 10.7536 2.75359 10.8354 2.7088C10.9172 2.66402 10.9864 2.59937 11.0366 2.5208C11.2822 2.13504 11.6115 1.80951 12 1.56836C12.3886 1.3272 12.8264 1.17661 13.2811 1.12775C13.4429 1.49382 13.531 1.88823 13.5402 2.28839C13.5493 2.68855 13.4795 3.08659 13.3345 3.45969C13.301 3.54702 13.2897 3.64136 13.3019 3.73413C13.314 3.8269 13.3491 3.91518 13.404 3.99094C13.7131 4.45464 13.8818 4.99763 13.8901 5.55483V6.11039Z" fill="white"/>
</svg>
