<svg width="22" height="22" viewBox="0 0 22 22" fill="none" xmlns="http://www.w3.org/2000/svg">
<path d="M6.58736 10.7396L2.39935 6.55157C0.75061 8.34891 0.125825 10.1495 0.114978 10.1864L0 10.5292L0.113893 10.8719C0.137757 10.9446 2.62605 18.122 10.9055 18.122C11.9132 18.122 12.8309 18.0114 13.6737 17.8259L10.6951 14.8473C9.62265 14.7948 8.6081 14.3451 7.84885 13.5858C7.08959 12.8266 6.63994 11.812 6.58736 10.7396ZM10.9055 2.93627C8.89343 2.93627 7.24469 3.37449 5.87038 4.0188L1.85158 0L0.317816 1.53376L19.8424 21.0583L21.3761 19.5245L17.7988 15.9472C20.6602 13.8288 21.6809 10.9175 21.6961 10.8719L21.81 10.5292L21.6961 10.1864C21.6722 10.1137 19.185 2.93627 10.9055 2.93627ZM12.973 11.1214C13.1758 10.3871 13.0033 9.56052 12.4393 8.99539C11.8753 8.43026 11.0476 8.25888 10.3133 8.46172L8.67757 6.826C9.34788 6.41379 10.1186 6.1939 10.9055 6.19036C13.2984 6.19036 15.2443 8.13631 15.2443 10.5292C15.2411 11.3159 15.0208 12.0865 14.6076 12.756L12.973 11.1214Z" fill="#67727E"/>
</svg>
