<svg width="20" height="20" viewBox="0 0 20 20" fill="none" xmlns="http://www.w3.org/2000/svg">
<path d="M9.0528 10.5367V7.04922H5.56527V10.5367H9.0528Z" fill="#324152" fill-opacity="0.5"/>
<path fill-rule="evenodd" clip-rule="evenodd" d="M11.5367 4.22185C11.974 3.77383 12.2434 3.16126 12.2434 2.48577C12.2434 1.11292 11.1305 0 9.75763 0C8.38477 0 7.27185 1.11292 7.27185 2.48577C7.27185 3.15411 7.5356 3.76084 7.96469 4.20756C4.92566 4.91466 2.57589 7.41731 2.09423 10.5367H2.07767V10.6495C2.0354 10.9529 2.01078 11.2619 2.00486 11.5756H1.85507C0.83054 11.5756 0 12.4061 0 13.4306V17.2149C0 18.2395 0.83054 19.07 1.85507 19.07H17.6602C18.6848 19.07 19.5153 18.2395 19.5153 17.2149V13.4306C19.5153 12.4061 18.6848 11.5756 17.6602 11.5756H17.4362C17.3689 8.00477 14.8762 5.02741 11.5367 4.22185ZM8.31068 2.48577C8.31068 1.68665 8.9585 1.03883 9.75763 1.03883C9.87255 1.03883 9.98434 1.05223 10.0915 1.07755V2.52288H8.31114C8.31083 2.51055 8.31068 2.49818 8.31068 2.48577ZM10.0915 3.894V2.52288H11.2041C11.1873 3.19063 10.7181 3.74599 10.0915 3.894ZM16.0277 9.52347C16.1418 9.85039 16.2311 10.1889 16.2935 10.5367H16.0277V9.52347ZM12.5403 10.5367H16.0277V11.5756H12.5403V10.5367ZM9.0528 10.5367L12.5403 10.5367V7.04921H14.4897C13.9314 6.47967 13.2718 6.00971 12.5403 5.66845V7.04921L9.0528 7.04922L9.0527 5.07873C7.74157 5.2089 6.54198 5.71828 5.56518 6.49565L5.56527 7.04922L4.9513 7.04921C4.03332 7.98563 3.38893 9.19126 3.14751 10.5367L5.56527 10.5367L5.56518 11.5756H9.0527L9.0528 10.5367ZM5.11998 12.6144H1.85507C1.77789 12.6144 1.70322 12.6251 1.63245 12.6451V15.3598H1.03883V17.2149C1.03883 17.5886 1.28985 17.9035 1.63245 18.0004V15.3598H5.11998V18.0312H8.60749V15.3598H12.095V18.0312H15.5825V15.3598H18.4764V13.4306C18.4764 12.9798 18.111 12.6144 17.6602 12.6144H15.5825V15.3598H12.095V12.6144H8.60749V15.3598H5.11998V12.6144Z" fill="#324152" fill-opacity="0.5"/>
</svg>
