<svg width="18" height="18" viewBox="0 0 18 18" fill="none" xmlns="http://www.w3.org/2000/svg">
<path d="M8.17711 9.7763V6.79785H5.19865V9.7763H8.17711Z" fill="white"/>
<path fill-rule="evenodd" clip-rule="evenodd" d="M10.2985 4.38319C10.672 4.00056 10.9021 3.47741 10.9021 2.90052C10.9021 1.72806 9.95161 0.777588 8.77914 0.777588C7.60667 0.777588 6.6562 1.72806 6.6562 2.90052C6.6562 3.4713 6.88145 3.98947 7.24791 4.37098C4.65248 4.97487 2.6457 7.11222 2.23434 9.7763H2.2202V9.8726C2.1841 10.1317 2.16307 10.3956 2.15802 10.6635H2.03009C1.15511 10.6635 0.445801 11.3728 0.445801 12.2478V15.4797C0.445801 16.3547 1.15511 17.064 2.03009 17.064H15.5282C16.4032 17.064 17.1125 16.3547 17.1125 15.4797V12.2478C17.1125 11.3728 16.4032 10.6635 15.5282 10.6635H15.3369C15.2794 7.61393 13.1506 5.07116 10.2985 4.38319ZM7.5434 2.90052C7.5434 2.21804 8.09666 1.66478 8.77914 1.66478C8.87729 1.66478 8.97276 1.67623 9.06431 1.69785V2.93221H7.54379C7.54353 2.92168 7.5434 2.91112 7.5434 2.90052ZM9.06431 4.10319V2.93221H10.0145C10.0001 3.50249 9.59943 3.97679 9.06431 4.10319ZM14.134 8.91095C14.2314 9.19015 14.3077 9.47923 14.361 9.7763H14.134V8.91095ZM11.1556 9.7763H14.134V10.6635H11.1556V9.7763ZM8.17711 9.7763H11.1556V6.79785H12.8205C12.3437 6.31144 11.7804 5.91008 11.1556 5.61863V6.79785H8.17711V5.11499C7.05736 5.22616 6.03287 5.66119 5.19865 6.32509V6.79785H4.67438C3.89039 7.59758 3.34006 8.62723 3.13388 9.7763H5.19865V10.6635H8.17711V9.7763ZM4.81843 11.5507H2.03009C1.96418 11.5507 1.90041 11.5598 1.83997 11.5769V13.8954H1.333V15.4797C1.333 15.7988 1.54738 16.0678 1.83997 16.1505V13.8954H4.81843V16.1768H7.79688V13.8954H10.7753V16.1768H13.7538V13.8954H16.2253V12.2478C16.2253 11.8628 15.9132 11.5507 15.5282 11.5507H13.7538V13.8954H10.7753V11.5507H7.79688V13.8954H4.81843V11.5507Z" fill="white"/>
</svg>
