<svg width="22" height="16" viewBox="0 0 22 16" fill="none" xmlns="http://www.w3.org/2000/svg">
<path d="M10.905 0C2.62592 0 0.13775 7.17708 0.114972 7.24975L0 7.5925L0.113888 7.93525C0.13775 8.00792 2.62592 15.185 10.905 15.185C19.1841 15.185 21.6722 8.00792 21.695 7.93525L21.81 7.5925L21.6961 7.24975C21.6722 7.17708 19.1841 0 10.905 0ZM10.905 11.9311C8.51228 11.9311 6.56643 9.98522 6.56643 7.5925C6.56643 5.19978 8.51228 3.25393 10.905 3.25393C13.2977 3.25393 15.2436 5.19978 15.2436 7.5925C15.2436 9.98522 13.2977 11.9311 10.905 11.9311Z" fill="#67727E"/>
<path d="M10.9051 5.42334C9.72937 5.42334 8.73584 6.41687 8.73584 7.59263C8.73584 8.76838 9.72937 9.76191 10.9051 9.76191C12.0809 9.76191 13.0744 8.76838 13.0744 7.59263C13.0744 6.41687 12.0809 5.42334 10.9051 5.42334Z" fill="#67727E"/>
</svg>
